<svg xmlns="http://www.w3.org/2000/svg" xmlns:xlink="http://www.w3.org/1999/xlink" width="103px" height="99px" viewBox="0 0 103 99" version="1.1"><title>Small</title><desc>Created with Sketch.</desc><g id="Page-1" stroke="none" stroke-width="1" fill="none" fill-rule="evenodd"><g id="Small" transform="translate(-16.000000, -20.000000)"><polyline id="Fill-7" fill="#000000" points="115.9724 113.4836 114.5164 113.4836 114.5164 112.0612 113.4372 112.0612 113.4372 113.4836 111.9896 113.4836 111.9896 114.504 113.4372 114.504 113.4372 115.9264 114.5164 115.9264 114.5164 114.504 115.9724 114.504 115.9724 113.4836"/><path d="M113.9812,117.9104 C116.144,117.9104 117.8972,116.1568 117.8972,113.994 C117.8972,111.8308 116.144,110.0776 113.9812,110.0776 C111.818,110.0776 110.0648,111.8308 110.0648,113.994 C110.0648,116.1568 111.818,117.9104 113.9812,117.9104 Z" id="Stroke-8" stroke="#000000"/><rect id="Rectangle" x="1.13686838e-13" y="0" width="128" height="128"/><path d="M94.7840761,83.4136264 L85.2974755,73.8350577 C84.7487355,73.2797006 84.5725212,72.4517415 84.8468852,71.7179239 C89.0622356,60.3340827 83.3361765,47.6566525 72.0573856,43.4019585 C67.1380753,41.5462823 61.7204175,41.5452009 56.8003731,43.39891 C56.07327,43.6755913 55.2530391,43.4975015 54.7029758,42.943522 L48.3647528,36.543658 C47.8795339,36.0555116 47.8782542,35.2627799 48.3618961,34.7730415 C48.4985983,34.6346158 48.6655098,34.5304142 48.8492716,34.4687786 C53.8633653,32.8188352 59.1058267,31.9855312 64.3796568,32.0001901 C93.4864751,32.0001901 107.942465,55.3677642 111.541829,62.1853676 C112.152724,63.3390057 112.152724,64.7243065 111.541829,65.8779362 C107.939054,72.5563958 103.179544,78.5290682 97.4890318,83.5127035 C96.7004237,84.1987704 95.5212901,84.1555566 94.7840761,83.4136264 Z M106.827467,101.172663 C108.390258,102.733926 108.39093,105.265907 106.828967,106.827993 C105.267003,108.390083 102.733886,108.390755 101.171098,106.829492 L21.1726045,26.8275079 C19.6097568,25.2662452 19.6090407,22.7342243 21.1710045,21.1720781 C22.7329679,19.6099319 25.2661255,19.6092161 26.828973,21.170479 L106.827467,101.172663 Z M42.7456487,54.2120093 C43.2930324,54.7661813 43.4698315,55.5916832 43.1980943,56.3245521 C39.0091618,67.7218515 44.7678929,80.3884764 56.0605848,84.6161657 C60.9512236,86.4471143 66.3301266,86.4482478 71.2215393,84.6193595 C71.9476689,84.3452216 72.7655178,84.5239093 73.3142985,85.0765965 L79.6352408,91.4590874 C80.1205065,91.9473115 80.1217428,92.7401239 79.637999,93.2298842 C79.5012471,93.3683373 79.3342731,93.4725502 79.1504492,93.5341781 C74.1387019,95.1820556 68.8990053,96.014353 63.6279947,95.9998127 C34.516695,95.9998127 20.0584796,72.630058 16.4585608,65.8119602 C15.8471464,64.6583137 15.8471464,63.2726634 16.4585606,62.1190163 C20.0598109,55.4420715 24.8175737,49.470553 30.5062034,44.4876517 C31.2951772,43.8011614 32.4750342,43.8442894 33.2127407,44.5865861 L42.7456487,54.2120093 Z" id="Shape" fill="#000000"/></g></g></svg>